<?xml version="1.0" encoding="UTF-8"?>
<svg version="1.1" xmlns="http://www.w3.org/2000/svg" width="512" height="512">
<path d="M0 0 C1.81677401 -0.00445668 1.81677401 -0.00445668 3.67025054 -0.0090034 C7.01091954 -0.01614556 10.35153707 -0.01885973 13.69220996 -0.01960087 C17.30390665 -0.02146159 20.91559241 -0.02901408 24.52728271 -0.03573608 C32.41620213 -0.04927999 40.30511644 -0.05533826 48.19404554 -0.05974674 C53.12824199 -0.06251645 58.06243649 -0.06675517 62.99663162 -0.07125092 C76.68115554 -0.08343957 90.36567791 -0.09373894 104.05020714 -0.09712601 C104.92495952 -0.09734557 105.79971191 -0.09756514 106.70097194 -0.09779136 C107.57771981 -0.09800964 108.45446768 -0.09822791 109.35778368 -0.09845281 C111.13416251 -0.09889626 112.91054134 -0.09934282 114.68692017 -0.09979248 C115.56804996 -0.10001391 116.44917975 -0.10023534 117.35701044 -0.10046348 C131.61525009 -0.10440644 145.87343848 -0.12184693 160.13165836 -0.145152 C174.80072803 -0.16893328 189.46977206 -0.18133097 204.1388613 -0.18249393 C212.36265649 -0.18340701 220.58638492 -0.18906605 228.81016159 -0.20731354 C235.8168058 -0.22280646 242.8233626 -0.22778141 249.83002071 -0.21957543 C253.39697232 -0.21570084 256.96374842 -0.21643955 260.5306778 -0.23063278 C310.13902432 -0.41638113 310.13902432 -0.41638113 329.73233032 16.14044189 C330.38846313 16.68442627 331.04459595 17.22841064 331.72061157 17.78887939 C347.20332352 31.86407208 349.6918276 54.02199054 350.64049745 73.71876407 C350.95843661 82.10297528 350.87984442 90.4999792 350.87759399 98.88873291 C350.88059249 101.13946081 350.88399659 103.39018819 350.88777161 105.64091492 C350.89654606 111.71156885 350.89894695 117.78220866 350.89958739 123.85286832 C350.90030169 127.65828613 350.90244316 131.46370042 350.90508461 135.26911736 C350.91384185 147.89638598 350.91850702 160.52364443 350.91775414 173.15091527 C350.9176942 174.1677561 350.9176942 174.1677561 350.91763306 175.20513916 C350.91759218 175.88388062 350.9175513 176.56262209 350.91750918 177.26193147 C350.91710331 188.24495254 350.92666294 199.22793924 350.94077142 210.21095038 C350.95521286 221.54446587 350.96185517 232.87795948 350.96117765 244.21148628 C350.96092441 250.55175345 350.96367838 256.89198167 350.9743557 263.23224068 C350.9841388 269.20369276 350.98404698 275.17506946 350.97683907 281.14652443 C350.97580575 283.31866823 350.97808 285.49081699 350.98419952 287.66295242 C351.01321275 298.68911418 350.76219706 309.61624712 349.82652283 320.60710144 C349.74689684 321.54448231 349.66727085 322.48186319 349.58523196 323.44764954 C347.85646335 341.84986605 341.75833769 357.47410008 327.72842407 369.91778564 C312.22798919 382.22419152 292.61106118 384.29569198 273.46466064 384.28088379 C271.64788663 384.28534047 271.64788663 384.28534047 269.79441011 384.28988719 C266.45374111 384.29702934 263.11312358 384.29974352 259.77245069 384.30048466 C256.160754 384.30234538 252.54906823 384.30989787 248.93737793 384.31661987 C241.04845851 384.33016378 233.15954421 384.33622205 225.2706151 384.34063053 C220.33641866 384.34340024 215.40222415 384.34763896 210.46802902 384.3521347 C196.78350511 384.36432336 183.09898273 384.37462273 169.41445351 384.3780098 C168.53970112 384.37822936 167.66494874 384.37844893 166.76368871 384.37867515 C165.88694083 384.37889343 165.01019296 384.3791117 164.10687697 384.3793366 C162.33049814 384.37978005 160.55411931 384.38022661 158.77774048 384.38067627 C157.45604579 384.38100841 157.45604579 384.38100841 156.10765021 384.38134727 C141.84941055 384.38529023 127.59122216 384.40273072 113.33300228 384.42603579 C98.66393261 384.44981707 83.99488859 384.46221476 69.32579935 384.46337771 C61.10200415 384.4642908 52.87827573 384.46994984 44.65449905 384.48819733 C37.64785484 384.50369025 30.64129804 384.5086652 23.63463993 384.50045922 C20.06768832 384.49658463 16.50091222 384.49732334 12.93398285 384.51151657 C-36.67436367 384.69726491 -36.67436367 384.69726491 -56.26766968 368.14044189 C-56.92380249 367.59645752 -57.5799353 367.05247314 -58.25595093 366.49200439 C-73.73866288 352.41681171 -76.22716696 330.25889325 -77.1758368 310.56211972 C-77.49377597 302.17790851 -77.41518378 293.78090459 -77.41293335 285.39215088 C-77.41593185 283.14142298 -77.41933595 280.8906956 -77.42311096 278.63996887 C-77.43188542 272.56931494 -77.43428631 266.49867513 -77.43492675 260.42801547 C-77.43564104 256.62259766 -77.43778252 252.81718336 -77.44042397 249.01176643 C-77.44918121 236.38449781 -77.45384637 223.75723936 -77.45309349 211.12996852 C-77.45305354 210.45207463 -77.45301358 209.77418075 -77.45297241 209.07574463 C-77.45293153 208.39700317 -77.45289065 207.7182617 -77.45284853 207.01895232 C-77.45244266 196.03593125 -77.46200229 185.05294455 -77.47611078 174.06993341 C-77.49055222 162.73641792 -77.49719452 151.40292431 -77.496517 140.06939751 C-77.49626376 133.72913033 -77.49901774 127.38890212 -77.50969505 121.04864311 C-77.51947816 115.07719102 -77.51938633 109.10581433 -77.51217842 103.13435936 C-77.5111451 100.96221556 -77.51341936 98.7900668 -77.51953888 96.61793137 C-77.5485521 85.59176961 -77.29753642 74.66463667 -76.36186218 63.67378235 C-76.2822362 62.73640148 -76.20261021 61.7990206 -76.12057132 60.83323425 C-74.3918027 42.43101774 -68.29367704 26.80678371 -54.26376343 14.36309814 C-38.76332855 2.05669227 -19.14640053 -0.01480819 0 0 Z M35.29483032 114.57794189 C31.34243081 119.7675191 30.50246271 123.9090257 30.27139282 130.34747314 C31.88519184 140.12600108 39.32530547 146.25623607 46.06045532 152.85919189 C47.17662572 153.96789015 48.29190753 155.07748364 49.40634155 156.18792725 C52.32380571 159.0902118 55.25308388 161.98027495 58.18508911 164.86785889 C61.18210176 167.82375244 64.16764387 170.79118317 67.15420532 173.75762939 C73.00248872 179.56317755 78.86331838 185.35585 84.73233032 191.14044189 C83.18241073 194.85818357 80.91452463 197.17690072 78.05484009 199.98150635 C77.58144196 200.44877136 77.10804382 200.91603638 76.62030029 201.39746094 C75.5950007 202.40848929 74.5674707 203.41725967 73.53796577 204.42400551 C71.90585885 206.02121865 70.28103772 207.62551804 68.65809631 209.23204041 C64.04372615 213.79761081 59.41837224 218.35192898 54.78384399 222.89703369 C51.94598206 225.68113503 49.11809861 228.47505944 46.29600334 231.27513695 C45.22214662 232.33662809 44.14451602 233.39431611 43.06299019 234.44799232 C41.54570255 235.92656061 40.04140689 237.417312 38.53921509 238.91119385 C37.6814296 239.75406448 36.8236441 240.59693512 35.93986511 241.46534729 C31.64904157 246.66497492 30.14459315 251.95267943 30.38858032 258.65216064 C31.3097684 265.32030617 34.72674382 269.86851459 39.94326782 273.95294189 C44.65824896 277.08253636 49.17579653 277.61945343 54.73233032 277.14044189 C60.93432661 275.26240692 64.65876929 272.94634019 69.16079712 268.35894775 C69.74890167 267.7796048 70.33700623 267.20026184 70.94293213 266.60336304 C72.8685068 264.69965256 74.77537258 262.77840447 76.68154907 260.85528564 C78.0250436 259.51516384 79.36927922 258.17578463 80.71421814 256.83711243 C83.52541394 254.03327127 86.32741255 251.22063174 89.12319946 248.40142822 C92.69041422 244.80578298 96.27953518 241.23298317 99.87593365 237.66655636 C102.65529298 234.90535463 105.4225229 232.13224224 108.18634987 229.35550117 C109.50426106 228.03427649 110.82583588 226.71669496 112.15125084 225.40299797 C121.983202 215.63895047 129.73678933 207.0882939 130.04483032 192.57794189 C129.81335597 173.96354633 116.54277251 163.78426208 104.32217407 151.45684814 C103.74465456 150.87400496 103.16713505 150.29116177 102.57211494 149.69065666 C99.52507327 146.61714543 96.47454205 143.54714249 93.42153931 140.47955322 C90.91155302 137.95615461 88.40907192 135.42564914 85.91275024 132.88873291 C82.87254473 129.79913496 79.82017563 126.72206497 76.75872993 123.65351677 C75.60271411 122.49081705 74.45093329 121.32388959 73.30366325 120.15255928 C66.52575099 113.24045895 61.3160474 107.97836952 51.29483032 106.70294189 C44.84557437 107.49495578 39.67278929 109.68744139 35.29483032 114.57794189 Z M144.23623657 240.29669189 C143.59557251 241.07012939 142.95490845 241.84356689 142.29483032 242.64044189 C141.63611938 243.41387939 140.97740845 244.18731689 140.29873657 244.98419189 C136.63045094 250.03380204 137.18927075 256.16678655 137.73233032 262.14044189 C139.4269555 267.71432951 143.90488058 272.05888801 148.73233032 275.14044189 C153.21204408 276.91175878 156.98476542 277.40097366 161.78823853 277.43096924 C162.46716156 277.43768646 163.14608459 277.44440369 163.84558105 277.45132446 C166.07483377 277.4702155 168.30378395 277.4742242 170.53311157 277.47637939 C172.09481425 277.48281394 173.65651574 277.48954278 175.21821594 277.49655151 C178.48719067 277.50850235 181.75605991 277.51223465 185.02505493 277.51104736 C189.19440811 277.5108444 193.36307798 277.53813278 197.53226948 277.57259178 C200.75725859 277.59493467 203.98208523 277.59888264 207.20714378 277.59782791 C208.74320007 277.60017329 210.27926156 277.60893635 211.81524086 277.62449265 C225.23606158 277.82224275 225.23606158 277.82224275 236.59434509 271.40078735 C241.64242459 265.96064822 243.22739297 261.08101035 243.04092407 253.69903564 C242.23106372 246.9843707 238.74222332 242.63698619 233.70889282 238.36700439 C228.91115866 235.38975434 224.21146024 234.88668096 218.66055298 234.86578369 C217.63975899 234.85811729 217.63975899 234.85811729 216.5983429 234.85029602 C214.36426831 234.83647561 212.13050489 234.83735118 209.89639282 234.83966064 C208.33229459 234.83576925 206.7681974 234.83143367 205.20410156 234.82667542 C201.93092417 234.81922921 198.65785468 234.81949261 195.38467407 234.82476807 C191.2063635 234.83055731 187.028497 234.81363737 182.85025978 234.79042339 C179.62102714 234.77563436 176.39190013 234.77482141 173.16263962 234.77793312 C171.62298072 234.7774224 170.08331552 234.77223171 168.54368973 234.7621212 C155.49829299 234.44447498 155.49829299 234.44447498 144.23623657 240.29669189 Z " fill="#000000" transform="translate(119.26766967773438,63.85955810546875)"/>
</svg>
